<?xml version="1.0" standalone="no"?>
<!DOCTYPE svg PUBLIC "-//W3C//DTD SVG 20010904//EN"
 "http://www.w3.org/TR/2001/REC-SVG-20010904/DTD/svg10.dtd">
<svg version="1.0" xmlns="http://www.w3.org/2000/svg"
 width="260.000000pt" height="260.000000pt" viewBox="0 0 260.000000 260.000000"
 preserveAspectRatio="xMidYMid meet">
<metadata>
Created by potrace 1.14, written by Peter Selinger 2001-2017
</metadata>
<g transform="translate(0.000000,260.000000) scale(0.100000,-0.100000)"
fill="#000000" stroke="none">
<path d="M1720 2445 c-7 -8 -17 -15 -22 -15 -12 0 -58 -47 -58 -60 0 -5 -5
-10 -11 -10 -17 0 -39 -27 -39 -48 0 -10 -11 -25 -25 -32 -16 -8 -25 -22 -25
-37 0 -13 -4 -23 -10 -23 -5 0 -10 -9 -10 -20 0 -11 -4 -20 -9 -20 -5 0 -13
-10 -17 -22 -9 -31 -29 -48 -53 -48 -12 0 -21 -6 -21 -15 0 -8 -6 -15 -12 -16
-7 0 -60 -2 -118 -4 -135 -4 -220 -14 -220 -26 0 -5 -9 -9 -19 -9 -11 0 -21
-5 -23 -11 -4 -12 -88 10 -88 23 0 5 -4 8 -10 8 -5 0 -42 32 -81 70 -39 39
-77 70 -85 70 -8 0 -14 5 -14 10 0 6 -5 10 -11 10 -6 0 -17 6 -24 13 -37 32
-46 37 -74 37 -16 0 -31 5 -33 11 -7 20 -48 -13 -48 -38 0 -13 -4 -23 -10 -23
-5 0 -10 -25 -10 -55 0 -30 5 -55 10 -55 6 0 10 -30 10 -70 0 -40 4 -70 10
-70 6 0 10 -15 10 -33 0 -18 6 -39 12 -45 7 -7 14 -41 15 -75 2 -80 1 -79 13
-72 6 4 10 -27 10 -84 0 -50 -4 -91 -9 -91 -8 0 -20 -105 -22 -190 -1 -43 13
-120 22 -120 5 0 9 -20 9 -45 0 -25 4 -45 10 -45 5 0 12 -12 16 -28 9 -42 27
-86 38 -94 5 -4 3 -13 -6 -22 -12 -11 -15 -27 -11 -56 3 -22 0 -53 -7 -69 -6
-16 -13 -44 -14 -62 -1 -18 -8 -35 -14 -37 -7 -2 -12 -10 -12 -18 0 -8 -4 -14
-10 -14 -5 0 -10 -18 -10 -40 0 -23 -7 -55 -16 -73 -13 -24 -15 -48 -11 -109
5 -61 3 -80 -8 -92 -8 -8 -15 -22 -15 -32 0 -9 -11 -27 -25 -40 -14 -13 -25
-34 -25 -49 0 -27 20 -55 39 -55 6 0 11 -4 11 -8 0 -4 15 -16 33 -27 17 -10
39 -27 48 -37 9 -10 21 -18 26 -18 5 0 23 -11 39 -25 16 -14 41 -25 57 -25 15
0 27 -4 27 -10 0 -5 11 -10 25 -10 14 0 25 5 25 10 0 6 5 10 11 10 6 0 17 6
24 13 36 31 46 37 65 37 11 0 20 -3 20 -8 0 -13 -39 -42 -56 -42 -18 0 -44
-23 -44 -39 0 -16 39 -13 56 4 23 22 54 18 80 -10 13 -14 34 -25 49 -25 14 0
25 -4 25 -10 0 -5 9 -10 21 -10 11 0 27 -7 35 -15 17 -17 84 -21 84 -5 0 6 -4
10 -10 10 -5 0 -10 6 -10 14 0 8 -6 17 -12 20 -10 5 -10 7 0 12 6 3 12 17 12
30 0 19 -5 24 -25 24 -18 0 -25 -5 -25 -20 0 -13 -7 -20 -20 -20 -13 0 -20 7
-20 20 0 15 -7 20 -25 20 -15 0 -25 6 -25 14 0 8 -6 16 -12 19 -7 2 7 7 31 12
32 5 46 4 53 -6 7 -11 11 -11 15 -1 2 6 16 12 29 12 19 0 24 -5 24 -25 0 -14
5 -25 10 -25 6 0 10 -11 10 -25 0 -14 4 -25 9 -25 5 0 13 -10 17 -22 4 -13 11
-26 17 -29 5 -4 0 -10 -12 -14 -11 -3 -21 -11 -21 -16 0 -14 37 -11 44 4 5 9
7 9 12 0 4 -8 27 -13 65 -13 l59 0 0 50 c0 28 5 50 10 50 6 0 10 5 10 10 0 6
-10 10 -22 10 -27 0 -48 38 -48 87 0 26 -4 33 -20 33 -11 0 -20 5 -20 10 0 6
-30 10 -70 10 -40 0 -70 -4 -70 -10 0 -5 -22 -10 -50 -10 -38 0 -50 -4 -50
-15 0 -24 -57 -20 -65 5 -4 13 -18 23 -36 27 -24 5 -28 9 -23 28 4 17 1 25
-13 28 -10 2 -2 2 17 0 19 -2 43 -6 53 -9 27 -8 22 40 -8 72 -23 25 -28 26
-50 14 -20 -11 -26 -10 -39 3 -9 9 -16 18 -16 21 0 10 80 6 93 -4 7 -6 25 -21
40 -35 15 -14 32 -25 36 -25 5 0 11 -9 14 -21 3 -11 15 -23 26 -26 12 -3 21
-9 21 -14 0 -14 68 -11 73 4 3 10 9 10 26 0 11 -7 46 -13 76 -13 l55 0 0 35
c0 19 -4 35 -10 35 -5 0 -10 22 -10 49 0 47 -1 50 -32 56 -21 5 -33 4 -36 -4
-5 -14 -22 -14 -22 0 0 17 27 39 49 39 12 0 21 -4 21 -10 0 -5 14 -10 30 -10
17 0 30 4 30 9 0 17 -46 61 -64 61 -9 0 -16 5 -16 10 0 6 -7 10 -15 10 -8 0
-15 5 -15 10 0 6 -16 10 -35 10 -24 0 -35 5 -35 15 0 8 9 15 19 15 11 0 21 3
23 8 2 4 20 16 40 26 37 19 68 19 188 2 14 -2 17 -1 8 1 -10 2 -18 11 -18 19
0 8 -10 14 -25 14 -14 0 -25 2 -25 5 0 13 37 45 52 45 10 0 18 5 18 10 0 6 16
10 35 10 24 0 35 5 35 15 0 8 -7 15 -17 15 -26 0 -12 7 31 14 38 7 38 7 32
-18 -5 -19 -3 -26 9 -26 9 0 15 9 15 21 0 22 22 49 39 49 6 0 11 -9 11 -20 0
-11 2 -20 5 -20 12 0 55 24 55 32 0 4 11 8 25 8 14 0 25 -4 25 -10 0 -5 -4
-10 -10 -10 -5 0 -10 -11 -10 -25 0 -33 32 -33 66 0 14 14 30 25 36 25 6 0 19
10 29 22 11 11 22 18 27 13 4 -4 1 -10 -5 -12 -15 -5 -18 -53 -3 -53 6 0 10
-11 10 -24 0 -13 6 -27 13 -29 6 -3 2 -6 -10 -6 -20 -1 -23 -6 -23 -41 0 -30
4 -40 16 -40 11 0 14 -5 10 -16 -3 -9 -6 -20 -6 -25 0 -6 -9 -7 -20 -4 -17 6
-20 2 -20 -28 0 -19 -7 -40 -15 -47 -8 -7 -15 -19 -15 -26 0 -8 -4 -14 -10
-14 -5 0 -10 -9 -10 -19 0 -11 -5 -21 -12 -23 -17 -6 -17 -98 -1 -98 7 0 13
-5 13 -11 0 -14 -25 -39 -39 -39 -6 0 -11 -9 -11 -20 0 -11 -4 -20 -10 -20 -5
0 -10 -7 -10 -15 0 -8 -4 -15 -10 -15 -5 0 -10 9 -10 19 0 11 -9 23 -21 26
-27 9 -39 -4 -16 -16 21 -12 22 -29 2 -29 -8 0 -15 5 -15 10 0 6 -4 10 -10 10
-5 0 -10 -9 -10 -20 0 -11 5 -20 10 -20 6 0 10 -7 10 -15 0 -17 12 -19 26 -5
7 7 17 3 32 -10 16 -15 33 -20 72 -18 27 1 50 5 50 9 0 4 11 10 25 13 14 4 25
11 25 16 0 6 4 10 10 10 5 0 27 16 47 35 20 19 41 35 46 35 5 0 24 16 43 35
18 19 40 35 49 35 8 0 15 4 15 10 0 5 11 20 25 34 14 14 25 28 25 32 0 4 16
21 35 40 19 18 35 40 35 48 0 9 4 16 9 16 5 0 12 11 15 25 4 14 11 25 16 25 6
0 10 20 10 45 0 25 5 45 10 45 6 0 10 18 10 41 0 33 -3 40 -16 35 -9 -3 -20
-6 -25 -6 -5 0 -9 -7 -9 -15 0 -21 -53 -75 -74 -75 -9 0 -16 -4 -16 -10 0 -5
-9 -10 -21 -10 -29 0 -49 -24 -49 -59 0 -31 -14 -42 -23 -18 -6 16 -47 -26
-47 -48 0 -8 -4 -15 -10 -15 -19 0 -11 62 12 81 11 11 18 22 13 27 -4 4 -10 1
-12 -5 -3 -7 -11 -13 -19 -13 -8 0 -14 -4 -14 -10 0 -5 -9 -10 -20 -10 -11 0
-20 -4 -20 -10 0 -5 -4 -10 -10 -10 -5 0 -10 9 -10 20 0 11 5 20 10 20 6 0 10
11 10 25 0 19 5 25 21 25 19 0 49 21 49 35 0 3 -16 3 -35 -1 -31 -5 -35 -4
-35 15 0 12 6 21 15 21 8 0 15 5 15 10 0 6 8 10 18 10 10 0 27 7 38 15 10 8
38 15 62 15 23 0 42 5 42 10 0 6 20 10 45 10 25 0 45 5 45 11 0 11 -25 39 -35
39 -14 0 -35 30 -35 49 0 12 -6 21 -15 21 -8 0 -15 5 -15 10 0 14 -37 12 -44
-2 -5 -10 -7 -10 -12 0 -7 14 -94 17 -94 2 0 -5 -7 -10 -15 -10 -8 0 -15 -4
-15 -10 0 -5 -11 -10 -25 -10 -14 0 -25 5 -25 10 0 6 -9 10 -20 10 -11 0 -20
5 -20 10 0 6 11 10 25 10 14 0 25 5 25 10 0 6 9 10 20 10 11 0 20 7 20 15 0 8
-4 15 -10 15 -5 0 -10 5 -10 10 0 6 9 10 20 10 11 0 20 -4 20 -10 0 -5 20 -10
45 -10 51 0 55 8 23 42 -23 24 -77 33 -89 14 -4 -5 -30 -11 -58 -14 -28 -2
-54 -9 -57 -13 -3 -5 -14 -9 -25 -9 -12 0 -19 -7 -19 -20 0 -18 -4 -20 -34
-15 -26 5 -35 3 -40 -10 -4 -10 -12 -15 -22 -11 -18 7 -44 -16 -44 -38 0 -12
-10 -16 -37 -15 -21 0 -32 3 -25 6 6 2 12 12 12 21 0 14 -2 14 -9 3 -7 -11
-10 -11 -15 0 -5 11 -7 11 -12 2 -3 -7 -14 -13 -24 -13 -29 0 -130 -33 -130
-42 0 -4 -47 -8 -105 -8 -58 0 -105 4 -105 9 0 4 -27 11 -60 14 -34 3 -67 11
-75 17 -13 10 -20 8 -39 -13 -20 -22 -25 -23 -30 -10 -4 9 1 21 10 27 9 7 14
21 12 32 -3 15 -11 18 -33 16 -17 -2 -31 -8 -33 -13 -2 -5 -10 -9 -17 -9 -7 0
-15 -6 -18 -12 -2 -7 -8 -10 -12 -6 -9 8 18 38 34 38 6 0 11 11 11 25 0 24 -3
25 -60 25 -47 0 -60 3 -60 15 0 8 -4 15 -10 15 -5 0 -10 5 -10 10 0 6 9 10 20
10 11 0 20 5 20 10 0 6 7 10 15 10 8 0 15 9 15 20 0 13 7 20 20 20 11 0 20 -4
20 -10 0 -12 20 -13 39 -1 12 8 12 12 -2 25 -8 9 -25 16 -36 16 -14 0 -21 6
-21 19 0 23 19 31 76 31 24 0 44 5 44 10 0 6 9 10 20 10 15 0 20 -7 20 -25 0
-22 4 -25 35 -25 28 0 35 -4 35 -20 0 -13 -7 -20 -20 -20 -30 0 -24 -17 8 -23
33 -6 82 2 82 14 0 5 -9 9 -20 9 -11 0 -20 5 -20 10 0 6 5 10 10 10 6 0 10 9
10 20 0 11 -4 20 -10 20 -5 0 -10 11 -10 25 0 14 5 25 10 25 6 0 10 -4 10 -10
0 -5 5 -10 10 -10 6 0 22 -10 35 -23 44 -41 54 -47 75 -47 11 0 20 -7 20 -15
0 -8 5 -15 10 -15 19 0 10 -55 -11 -70 -12 -8 -27 -21 -35 -27 -7 -7 -17 -13
-23 -13 -6 0 -11 -7 -11 -15 0 -10 11 -15 35 -15 19 0 35 -4 35 -10 0 -14 59
-12 75 3 37 32 46 37 75 37 34 0 40 15 10 25 -11 3 -20 11 -20 16 0 5 -16 9
-35 9 -35 0 -35 0 -35 45 0 25 3 45 8 45 4 0 16 16 26 35 11 19 23 35 28 35 4
0 8 8 8 19 0 11 9 21 23 25 38 10 47 7 47 -19 0 -18 5 -25 20 -25 11 0 20 5
20 10 0 6 7 10 15 10 9 0 15 9 15 25 0 23 -4 25 -45 25 -25 0 -45 5 -45 10 0
6 10 10 22 10 12 0 29 7 39 16 16 14 20 15 33 2 8 -8 43 -18 78 -21 70 -6 98
-15 98 -28 0 -5 -9 -9 -20 -9 -15 0 -20 -7 -20 -25 0 -14 5 -25 10 -25 6 0 10
5 10 10 0 17 25 11 40 -10 8 -11 22 -20 30 -20 9 0 22 -6 29 -13 11 -9 14 -9
18 1 3 6 13 12 23 12 18 0 30 19 30 49 0 9 9 23 20 31 13 9 20 26 20 46 0 18
6 34 13 37 9 3 9 7 -1 20 -11 12 -12 30 -6 69 5 29 7 60 6 68 -1 8 -5 42 -8
75 -3 33 -10 62 -15 63 -5 2 -9 13 -9 24 0 11 -11 31 -25 44 -16 15 -25 34
-25 54 0 16 -4 30 -10 30 -5 0 -10 9 -10 19 0 11 -5 21 -12 23 -8 3 -12 21
-11 46 1 23 -2 44 -8 47 -5 4 -9 17 -9 31 0 21 4 24 20 19 14 -5 20 -2 20 9 0
9 -4 16 -10 16 -5 0 -10 14 -10 31 0 17 -7 37 -15 45 -11 12 -15 40 -15 120 0
63 -4 104 -10 104 -5 0 -10 25 -10 56 0 30 -6 62 -12 69 -30 33 -38 45 -38 55
0 15 -36 12 -50 -5z m10 -135 c0 -62 -3 -82 -15 -86 -20 -8 -9 -24 16 -24 10
0 19 -4 19 -10 0 -5 -4 -10 -10 -10 -14 0 -12 -28 2 -32 15 -5 -13 -38 -31
-38 -6 0 -11 -4 -11 -9 0 -5 -16 -12 -35 -15 -19 -4 -35 -11 -35 -16 0 -6 -9
-10 -20 -10 -26 0 -26 17 1 25 17 6 19 9 8 16 -8 5 -22 9 -32 9 -24 0 -57 32
-39 38 6 2 12 10 12 18 0 8 7 14 15 14 18 0 20 17 3 23 -10 4 -10 7 0 18 6 7
12 26 12 41 0 15 5 28 10 28 6 0 10 5 10 10 0 19 75 88 98 89 21 1 22 -2 22
-79z m-1050 -100 c0 -5 -9 -10 -21 -10 -11 0 -17 -4 -14 -10 3 -5 1 -10 -4
-10 -6 0 -11 9 -11 20 0 15 7 20 25 20 14 0 25 -4 25 -10z m47 -30 c15 -22 7
-50 -13 -50 -8 0 -14 -8 -14 -19 0 -10 -9 -21 -20 -24 -17 -4 -20 0 -20 24 0
18 7 33 20 41 11 7 20 21 20 30 0 24 12 23 27 -2z m46 -42 c5 -18 -3 -48 -14
-48 -5 0 -9 -7 -9 -15 0 -8 5 -15 10 -15 6 0 10 7 10 15 0 17 35 21 45 5 10
-15 -69 -90 -94 -90 -11 0 -21 5 -21 10 0 6 5 10 10 10 6 0 10 7 10 15 0 8 7
15 16 15 8 0 12 5 9 10 -3 6 -15 10 -26 10 -10 0 -19 5 -19 11 0 5 5 7 10 4 6
-3 10 3 10 14 0 12 5 21 10 21 6 0 10 9 10 20 0 22 26 28 33 8z m87 -123 c0
-21 -5 -25 -30 -25 -32 0 -38 12 -17 35 20 24 47 18 47 -10z m890 13 c0 -4
-16 -8 -35 -8 -19 0 -35 4 -35 8 0 4 16 8 35 8 19 0 35 -4 35 -8z m90 -28 c0
-5 -4 -10 -10 -10 -5 0 -10 5 -10 10 0 6 5 10 10 10 6 0 10 -4 10 -10z m-197
-47 c-7 -2 -13 -11 -13 -19 0 -8 -4 -14 -10 -14 -5 0 -10 6 -10 14 0 14 15 24
35 24 6 0 4 -2 -2 -5z m-833 -41 c0 -4 -9 -14 -20 -22 -11 -8 -20 -20 -20 -27
0 -7 -7 -13 -15 -13 -8 0 -15 -4 -15 -10 0 -5 -13 -10 -30 -10 -16 0 -30 5
-30 10 0 6 9 10 21 10 19 0 49 21 49 35 0 3 6 12 13 20 13 15 47 20 47 7z
m874 -4 c5 -10 7 -10 12 0 7 15 54 16 54 1 0 -11 25 -39 35 -39 4 0 13 -7 21
-15 9 -8 11 -15 5 -15 -6 0 -11 -7 -11 -15 0 -26 -49 -11 -81 27 -9 10 -21 18
-28 18 -6 0 -11 7 -11 15 0 8 -4 15 -10 15 -5 0 -10 5 -10 10 0 14 17 12 24
-2z m-824 -68 c0 -5 -5 -10 -11 -10 -5 0 -7 5 -4 10 3 6 8 10 11 10 2 0 4 -4
4 -10z m-197 -27 c-7 -2 -19 -2 -25 0 -7 3 -2 5 12 5 14 0 19 -2 13 -5z m210
0 c-7 -2 -19 -2 -25 0 -7 3 -2 5 12 5 14 0 19 -2 13 -5z m-53 -43 c0 -5 -4
-10 -10 -10 -5 0 -10 5 -10 10 0 6 5 10 10 10 6 0 10 -4 10 -10z m720 -35 c0
-45 0 -45 35 -45 19 0 35 5 35 10 0 6 16 10 35 10 24 0 35 -5 35 -15 0 -8 5
-15 10 -15 6 0 10 -13 10 -30 0 -23 -4 -30 -20 -30 -11 0 -20 5 -20 10 0 6
-30 10 -70 10 -40 0 -70 -4 -70 -10 0 -5 -7 -10 -15 -10 -8 0 -15 -7 -15 -15
0 -8 -4 -15 -10 -15 -5 0 -10 -11 -10 -25 0 -14 -4 -25 -8 -25 -9 0 -26 -176
-23 -235 0 -16 -4 -42 -10 -57 -10 -24 -17 -28 -49 -28 -21 0 -45 -3 -53 -6
-20 -7 -47 22 -47 52 0 13 -4 24 -10 24 -5 0 -10 7 -10 15 0 11 -7 14 -25 9
-22 -5 -25 -3 -25 20 0 14 -4 26 -10 26 -5 0 -10 9 -10 20 0 11 -4 20 -10 20
-5 0 -10 11 -10 25 0 14 -4 25 -9 25 -5 0 -12 11 -15 25 -4 14 -11 25 -16 25
-6 0 -10 5 -10 11 0 25 -63 59 -110 59 -17 0 -30 -4 -30 -10 0 -5 -9 -10 -21
-10 -11 0 -27 -7 -36 -15 -19 -20 -38 -14 -38 11 0 12 8 20 23 22 12 2 22 7
22 12 0 5 17 10 38 12 29 2 38 8 40 24 2 12 -4 28 -12 37 -21 21 -20 34 3 40
22 5 51 -24 51 -54 0 -26 23 -49 49 -49 19 0 21 6 21 60 0 33 4 60 8 60 5 0
17 -17 28 -37 10 -21 22 -39 27 -41 11 -5 9 -62 -3 -62 -5 0 -10 -11 -10 -25
0 -14 5 -25 10 -25 6 0 10 -11 10 -25 0 -14 5 -25 10 -25 6 0 10 -9 10 -19 0
-33 11 -51 31 -51 10 0 19 7 19 15 0 9 9 15 25 15 20 0 25 -5 25 -25 0 -14 5
-25 10 -25 15 0 13 80 -2 81 -7 0 -3 5 10 11 22 11 30 28 12 28 -5 0 -10 9
-10 20 0 11 5 20 10 20 6 0 10 7 10 15 0 8 4 15 9 15 5 0 13 -25 16 -55 11
-81 25 -67 25 25 0 47 -4 80 -10 80 -6 0 -10 28 -10 65 0 36 2 65 4 65 2 0 11
3 20 6 13 5 16 -1 16 -30 0 -20 4 -36 9 -36 5 0 12 -11 15 -25 4 -16 13 -25
26 -25 17 0 20 7 20 48 0 31 6 56 18 70 25 32 32 27 32 -23z m-770 0 c0 -15
-29 -55 -40 -55 -3 0 -11 4 -19 9 -12 8 -12 12 2 25 8 9 20 16 26 16 6 0 11 5
11 10 0 6 5 10 10 10 6 0 10 -7 10 -15z m958 -208 c2 -10 1 -29 -2 -42 -7 -25
-82 -105 -100 -105 -6 0 -20 -11 -30 -25 -27 -35 -56 -33 -56 4 0 25 5 30 43
40 23 6 54 21 70 34 22 20 27 33 27 71 0 43 2 47 22 44 13 -2 24 -11 26 -21z
m162 -67 c0 -5 -9 -10 -20 -10 -11 0 -20 5 -20 10 0 6 9 10 20 10 11 0 20 -4
20 -10z m-980 -50 c0 -25 51 -80 74 -80 9 0 16 -4 16 -10 0 -5 15 -10 34 -10
19 0 38 5 41 10 9 15 35 12 41 -5 3 -8 -1 -21 -9 -30 -17 -17 -57 -20 -57 -5
0 6 -16 10 -35 10 -19 0 -35 5 -35 10 0 6 -7 10 -15 10 -8 0 -32 18 -55 40
-36 35 -39 42 -28 60 16 26 28 26 28 0z m1000 0 c0 -5 11 -10 25 -10 23 0 25
-3 25 -51 0 -58 -16 -78 -62 -79 -21 0 -28 5 -28 20 0 16 -7 20 -35 20 -19 0
-35 -4 -35 -10 0 -5 -16 -10 -35 -10 -19 0 -35 5 -35 10 0 6 7 10 16 10 18 0
53 38 54 58 0 6 5 12 10 12 6 0 10 7 10 15 0 8 5 15 10 15 6 0 10 -7 10 -15 0
-8 4 -15 9 -15 21 0 41 13 41 26 0 8 5 14 10 14 6 0 10 -4 10 -10z m-1056
-205 c8 -8 24 -15 35 -15 12 0 21 -4 21 -10 0 -5 -19 -10 -41 -10 -35 0 -47
-6 -75 -36 l-34 -35 -30 29 c-35 36 -37 42 -11 42 33 0 51 11 51 31 0 15 7 19
34 19 19 0 41 -7 50 -15z m279 -22 c-7 -2 -19 -2 -25 0 -7 3 -2 5 12 5 14 0
19 -2 13 -5z m730 -334 c-6 -6 -18 -6 -28 -3 -18 7 -18 8 1 14 23 9 39 1 27
-11z m-953 5 c0 -3 -6 -12 -14 -20 -16 -16 -76 -19 -76 -4 0 6 16 10 35 10 19
0 35 5 35 10 0 6 5 10 10 10 6 0 10 -3 10 -6z m910 -24 c0 -5 -4 -10 -10 -10
-5 0 -10 5 -10 10 0 6 5 10 10 10 6 0 10 -4 10 -10z m120 -50 c0 -5 -4 -10
-10 -10 -5 0 -10 5 -10 10 0 6 5 10 10 10 6 0 10 -4 10 -10z m-1000 -20 c0 -5
16 -10 35 -10 19 0 35 -4 35 -10 0 -5 -18 -10 -40 -10 -22 0 -40 5 -40 10 0 6
-30 10 -70 10 -40 0 -70 -4 -70 -10 0 -5 -16 -10 -35 -10 -19 0 -35 5 -35 10
0 6 11 10 25 10 14 0 25 5 25 10 0 6 35 10 85 10 50 0 85 -4 85 -10z m1040 4
c0 -3 -7 -12 -15 -21 -20 -19 -32 -10 -14 11 14 15 29 21 29 10z m-910 -24 c0
-5 -4 -10 -10 -10 -5 0 -10 5 -10 10 0 6 5 10 10 10 6 0 10 -4 10 -10z m-370
-20 c0 -5 -4 -10 -10 -10 -5 0 -10 5 -10 10 0 6 5 10 10 10 6 0 10 -4 10 -10z
m70 -90 c0 -15 -7 -20 -25 -20 -14 0 -25 5 -25 10 0 6 7 10 15 10 8 0 15 5 15
10 0 6 5 10 10 10 6 0 10 -9 10 -20z m-70 -10 c0 -5 -4 -10 -10 -10 -5 0 -10
5 -10 10 0 6 5 10 10 10 6 0 10 -4 10 -10z m160 0 c0 -5 -13 -10 -30 -10 -16
0 -30 5 -30 10 0 6 14 10 30 10 17 0 30 -4 30 -10z m70 0 c0 -5 -4 -10 -10
-10 -5 0 -10 5 -10 10 0 6 5 10 10 10 6 0 10 -4 10 -10z m50 0 c0 -5 -4 -10
-10 -10 -5 0 -10 5 -10 10 0 6 5 10 10 10 6 0 10 -4 10 -10z m-165 -40 c3 -5
1 -10 -4 -10 -6 0 -11 5 -11 10 0 6 2 10 4 10 3 0 8 -4 11 -10z m1348 -7 c-7
-2 -19 -2 -25 0 -7 3 -2 5 12 5 14 0 19 -2 13 -5z m-1413 -24 c0 -5 13 -9 29
-9 17 0 33 -4 36 -10 4 -6 -11 -10 -37 -10 -24 0 -61 -7 -83 -15 -22 -8 -53
-14 -68 -15 -25 0 -27 3 -21 22 7 25 23 43 42 49 21 7 102 -2 102 -12z m1190
-43 c0 -3 -4 -8 -10 -11 -5 -3 -10 -1 -10 4 0 6 5 11 10 11 6 0 10 -2 10 -4z
m-710 -26 c0 -5 -9 -10 -20 -10 -11 0 -20 -7 -20 -15 0 -17 -9 -19 -29 -6 -12
8 -12 11 0 25 15 17 69 22 69 6z m-98 -42 c14 -17 18 -32 15 -55 -3 -18 -2
-33 4 -33 5 0 9 -4 9 -10 0 -5 -13 -10 -30 -10 -30 0 -40 14 -17 24 10 5 10 7
0 12 -7 3 -13 12 -13 20 0 8 -7 14 -15 14 -8 0 -15 4 -15 9 0 4 -20 16 -45 25
-25 10 -45 22 -45 27 0 5 30 7 66 4 53 -3 70 -8 86 -27z m58 -28 c0 -5 -7 -10
-15 -10 -8 0 -15 5 -15 10 0 6 7 10 15 10 8 0 15 -4 15 -10z m40 0 c0 -5 -7
-10 -15 -10 -8 0 -15 5 -15 10 0 6 7 10 15 10 8 0 15 -4 15 -10z m-3 -52 c-3
-8 -6 -5 -6 6 -1 11 2 17 5 13 3 -3 4 -12 1 -19z m-317 -18 c0 -5 -4 -10 -10
-10 -5 0 -10 5 -10 10 0 6 5 10 10 10 6 0 10 -4 10 -10z m370 -210 c0 -5 -4
-10 -10 -10 -5 0 -10 5 -10 10 0 6 5 10 10 10 6 0 10 -4 10 -10z"/>
<path d="M1240 1355 c0 -14 5 -25 10 -25 6 0 10 11 10 25 0 14 -4 25 -10 25
-5 0 -10 -11 -10 -25z"/>
<path d="M1520 1141 c0 -5 7 -12 16 -15 28 -11 54 -6 54 9 0 10 -11 15 -35 15
-19 0 -35 -4 -35 -9z"/>
<path d="M1590 1090 c0 -5 5 -10 10 -10 6 0 10 5 10 10 0 6 -4 10 -10 10 -5 0
-10 -4 -10 -10z"/>
<path d="M1791 1084 c-25 -29 3 -37 121 -35 105 2 140 8 111 18 -7 3 -13 11
-13 19 0 18 -86 20 -92 2 -2 -6 -19 -11 -38 -11 -19 0 -36 5 -38 11 -5 17 -34
14 -51 -4z"/>
<path d="M1120 1020 c0 -5 16 -10 35 -10 19 0 35 5 35 10 0 6 -16 10 -35 10
-19 0 -35 -4 -35 -10z"/>
<path d="M1730 1020 c0 -5 9 -10 20 -10 11 0 20 5 20 10 0 6 -9 10 -20 10 -11
0 -20 -4 -20 -10z"/>
<path d="M1845 728 c-4 -16 -11 -28 -16 -28 -5 0 -9 -4 -9 -10 0 -15 19 -12
37 6 12 11 13 20 5 37 -10 22 -10 22 -17 -5z"/>
<path d="M2190 690 c0 -5 5 -10 10 -10 6 0 10 5 10 10 0 6 -4 10 -10 10 -5 0
-10 -4 -10 -10z"/>
<path d="M1755 668 c-22 -12 -55 -44 -55 -53 0 -3 12 -5 28 -5 21 0 24 2 12
10 -11 7 -2 10 33 10 48 0 58 10 33 36 -17 17 -24 17 -51 2z"/>
<path d="M2130 670 c0 -5 9 -10 20 -10 11 0 20 5 20 10 0 6 -9 10 -20 10 -11
0 -20 -4 -20 -10z"/>
<path d="M1520 624 c0 -10 31 -36 37 -31 3 3 -2 13 -10 22 -16 15 -27 19 -27
9z"/>
<path d="M1610 615 c0 -21 31 -55 51 -55 10 0 19 -6 22 -12 2 -8 8 -9 13 -4 5
5 4 11 -3 13 -7 3 -13 20 -13 39 0 32 -2 34 -35 34 -24 0 -35 -5 -35 -15z"/>
<path d="M1558 566 c-19 -14 -25 -76 -8 -76 6 0 10 -9 10 -20 0 -11 -4 -20
-10 -20 -5 0 -10 9 -10 20 0 11 -4 20 -9 20 -5 0 -12 12 -16 28 l-7 27 -11
-25 c-6 -14 -19 -32 -29 -41 -31 -28 -16 -99 20 -99 21 0 35 -30 24 -53 -6
-12 -11 -16 -11 -9 -1 6 -8 12 -16 12 -8 0 -15 5 -15 10 0 6 -9 10 -20 10 -21
0 -29 -33 -10 -45 6 -3 10 -15 10 -26 0 -15 7 -19 35 -19 19 0 35 -4 35 -10 0
-5 9 -10 20 -10 26 0 25 8 -2 31 -11 11 -18 22 -13 27 4 4 10 1 12 -5 3 -7 16
-13 29 -13 21 0 24 -5 24 -35 0 -28 4 -35 19 -35 11 0 22 9 26 19 3 10 19 25
36 31 20 9 26 16 18 20 -8 6 -6 14 10 31 26 28 26 36 1 44 -11 3 -20 13 -20
22 0 10 -6 13 -16 9 -9 -3 -20 -6 -25 -6 -5 0 -9 -5 -9 -11 0 -20 -29 -39 -59
-39 -24 0 -31 4 -31 20 0 16 7 20 35 20 19 0 35 5 35 10 0 6 7 10 15 10 9 0
21 11 27 25 8 18 17 24 29 20 11 -4 26 2 38 14 12 12 28 21 36 21 8 0 15 4 15
9 0 5 11 12 25 15 24 6 37 46 15 46 -5 0 -10 -4 -10 -8 0 -7 -57 -32 -73 -32
-4 0 -7 10 -7 22 0 12 -3 18 -7 15 -3 -4 -6 -20 -5 -37 1 -31 -21 -42 -32 -17
-5 10 -7 10 -12 0 -8 -17 -42 -16 -60 1 -19 20 -18 26 6 26 11 0 20 7 20 15 0
8 -4 15 -10 15 -5 0 -10 9 -10 20 0 23 -26 26 -52 6z m-44 -92 c4 -9 4 -25 1
-34 -3 -10 1 -25 10 -33 17 -18 20 -37 5 -37 -6 0 -16 11 -22 25 -6 14 -17 25
-25 25 -16 0 -17 36 0 55 16 19 24 18 31 -1z"/>
<path d="M1800 570 c0 -5 5 -10 10 -10 6 0 10 5 10 10 0 6 -4 10 -10 10 -5 0
-10 -4 -10 -10z"/>
<path d="M1716 404 c-3 -9 -4 -20 0 -25 9 -15 34 -10 34 6 0 8 5 15 10 15 6 0
10 5 10 10 0 16 -47 11 -54 -6z"/>
<path d="M1033 283 c-33 -6 -28 -19 8 -27 44 -9 49 -8 49 8 0 11 -26 30 -33
25 -1 -1 -12 -4 -24 -6z"/>
<path d="M1440 221 c0 -19 32 -42 50 -36 10 3 21 1 25 -5 3 -5 -1 -10 -9 -10
-9 0 -16 -7 -16 -15 0 -8 -4 -15 -10 -15 -5 0 -10 -11 -10 -25 0 -16 6 -25 15
-25 8 0 15 -6 16 -12 0 -7 6 -2 12 12 13 27 32 50 42 50 10 0 35 28 35 39 0 6
-16 11 -35 11 -19 0 -35 5 -35 10 0 6 -11 10 -25 10 -14 0 -25 5 -25 10 0 6
-7 10 -15 10 -8 0 -15 -4 -15 -9z"/>
<path d="M1610 130 c0 -5 4 -10 9 -10 5 0 17 -7 25 -16 20 -20 56 -9 56 17 0
16 -7 19 -45 19 -25 0 -45 -4 -45 -10z"/>
<path d="M1540 80 c0 -16 -4 -30 -10 -30 -5 0 -10 -4 -10 -10 0 -14 13 -13 32
3 12 8 15 21 11 40 -7 36 -23 35 -23 -3z"/>
<path d="M1580 60 c0 -5 7 -10 15 -10 8 0 15 5 15 10 0 6 -7 10 -15 10 -8 0
-15 -4 -15 -10z"/>
</g>
</svg>
